<svg width="36" height="37" viewBox="0 0 36 37" fill="none" xmlns="http://www.w3.org/2000/svg">
<g id="@ Image / Vector / Figures" clip-path="url(#clip0_40_1488)">
<g id="Vector" filter="url(#filter0_d_40_1488)">
<path d="M28.8 6.93652H12.6C11.1088 6.93652 9.9 8.13043 9.9 9.60319V13.6032C9.9 14.3396 9.29558 14.9365 8.55 14.9365C6.31325 14.9365 4.5 16.7274 4.5 18.9365C4.5 21.1457 6.31325 22.9365 8.55 22.9365C9.29558 22.9365 9.9 23.5335 9.9 24.2699V28.2699C9.9 29.7426 11.1088 30.9365 12.6 30.9365H15.3C16.0456 30.9365 16.65 30.3396 16.65 29.6032C16.65 27.3941 18.4632 25.6032 20.7 25.6032C22.9368 25.6032 24.75 27.3941 24.75 29.6032C24.75 30.3396 25.3544 30.9365 26.1 30.9365H28.8C30.2912 30.9365 31.5 29.7426 31.5 28.2699V24.2699C31.5 23.5335 30.8956 22.9365 30.15 22.9365C27.9132 22.9365 26.1 21.1457 26.1 18.9365C26.1 16.7274 27.9132 14.9365 30.15 14.9365C30.8956 14.9365 31.5 14.3396 31.5 13.6032V9.60319C31.5 8.13043 30.2912 6.93652 28.8 6.93652Z" stroke="#8A32FA" stroke-width="1.5" stroke-linejoin="round" shape-rendering="crispEdges"/>
</g>
</g>
<defs>
<filter id="filter0_d_40_1488" x="-1.25" y="1.18652" width="38.5" height="35.5" filterUnits="userSpaceOnUse" color-interpolation-filters="sRGB">
<feFlood flood-opacity="0" result="BackgroundImageFix"/>
<feColorMatrix in="SourceAlpha" type="matrix" values="0 0 0 0 0 0 0 0 0 0 0 0 0 0 0 0 0 0 127 0" result="hardAlpha"/>
<feOffset/>
<feGaussianBlur stdDeviation="2.5"/>
<feComposite in2="hardAlpha" operator="out"/>
<feColorMatrix type="matrix" values="0 0 0 0 0.541176 0 0 0 0 0.196078 0 0 0 0 0.980392 0 0 0 0.7 0"/>
<feBlend mode="normal" in2="BackgroundImageFix" result="effect1_dropShadow_40_1488"/>
<feBlend mode="normal" in="SourceGraphic" in2="effect1_dropShadow_40_1488" result="shape"/>
</filter>
<clipPath id="clip0_40_1488">
<rect width="36" height="36" fill="white" transform="translate(0 0.936523)"/>
</clipPath>
</defs>
</svg>
